<svg id="Camada_2" data-name="Camada 2" xmlns="http://www.w3.org/2000/svg" viewBox="0 0 168.56 89.97"><defs><style>.cls-1,.cls-3{fill:#424242;}.cls-2,.cls-4{fill:#cbd400;}.cls-3{stroke:#424242;}.cls-3,.cls-4{stroke-miterlimit:10;}.cls-4{stroke:#cbd405;stroke-width:0.5px;}</style></defs><path class="cls-1" d="M35.42,60.29,60.15,5.11h5L35.42,71.55,5.76,5.11h4.93Z" transform="translate(-5.76 -5.11)"/><path class="cls-1" d="M64.06,71.61,96.29,9.81H61.71V5.11H104L71.84,67h34.58v4.61Z" transform="translate(-5.76 -5.11)"/><path class="cls-2" d="M163,38.39,107.79,10.73V5.11l66.45,33.28L107.79,71.55V66Z" transform="translate(-5.76 -5.11)"/><path class="cls-2" d="M52.94,71.46H49.45V67.89h3.49Z" transform="translate(-5.76 -5.11)"/><path class="cls-3" d="M68.17,82.7l3.21-7.18H72l-3.87,8.64-3.86-8.64H65Z" transform="translate(-5.76 -5.11)"/><path class="cls-3" d="M74,84v-8.5h.59V84Z" transform="translate(-5.76 -5.11)"/><path class="cls-3" d="M81.05,84.11A4.35,4.35,0,0,1,78.9,76a4.07,4.07,0,0,1,2.15-.59,4.14,4.14,0,0,1,1.73.37,4.46,4.46,0,0,1,1.46,1l-.46.41a3.82,3.82,0,0,0-1.23-.92,3.55,3.55,0,0,0-1.5-.32,3.5,3.5,0,0,0-1.85.5,3.72,3.72,0,0,0-1.86,3.25,3.73,3.73,0,0,0,.5,1.88A3.77,3.77,0,0,0,79.2,83a3.51,3.51,0,0,0,1.85.51,3.64,3.64,0,0,0,1.59-.37,3.74,3.74,0,0,0,1.29-1l.47.37a4.29,4.29,0,0,1-1.49,1.19A4.16,4.16,0,0,1,81.05,84.11Z" transform="translate(-5.76 -5.11)"/><path class="cls-3" d="M93.09,75.52v.6H89.73V84h-.6v-7.9H85.76v-.6Z" transform="translate(-5.76 -5.11)"/><path class="cls-3" d="M98.35,84.11a4.25,4.25,0,0,1-2.15-.58,4.2,4.2,0,0,1-1.57-1.59,4.3,4.3,0,0,1-.58-2.17,4.36,4.36,0,0,1,.58-2.18A4.25,4.25,0,0,1,96.2,76a4.29,4.29,0,0,1,4.31,0,4.4,4.4,0,0,1,1.57,1.58,4.35,4.35,0,0,1,.57,2.18,4.29,4.29,0,0,1-.57,2.17,4.35,4.35,0,0,1-1.57,1.59A4.26,4.26,0,0,1,98.35,84.11Zm0-8.08a3.51,3.51,0,0,0-1.85.51,3.75,3.75,0,0,0-1.86,3.23,3.58,3.58,0,0,0,.51,1.87A3.67,3.67,0,0,0,96.5,83a3.51,3.51,0,0,0,1.85.51,3.57,3.57,0,0,0,1.86-.51,3.72,3.72,0,0,0,1.34-1.36,3.77,3.77,0,0,0,0-3.75,3.69,3.69,0,0,0-1.34-1.35A3.57,3.57,0,0,0,98.35,76Z" transform="translate(-5.76 -5.11)"/><path class="cls-3" d="M109.57,84,106,79.73h1a4.06,4.06,0,0,0,1.57-.25,2.1,2.1,0,0,0,.77-.63,1.5,1.5,0,0,0,.33-.94,1.52,1.52,0,0,0-.28-.87,2.07,2.07,0,0,0-.78-.67,2.6,2.6,0,0,0-1.18-.26h-2.37V84h-.59v-8.5h3a3.48,3.48,0,0,1,1.13.19,2.85,2.85,0,0,1,.91.54,2.48,2.48,0,0,1,.58.77,2,2,0,0,1,.21.89,2.08,2.08,0,0,1-.44,1.29,2.47,2.47,0,0,1-1,.82,2.77,2.77,0,0,1-.8.23,6.86,6.86,0,0,1-.81,0L110.35,84Z" transform="translate(-5.76 -5.11)"/><path class="cls-3" d="M117.16,84l4.11-7.9h-4.41v-.6h5.39l-4.1,7.91h4.42V84Z" transform="translate(-5.76 -5.11)"/><path class="cls-3" d="M128,84.11a3.12,3.12,0,0,1-1.23-.26,3.17,3.17,0,0,1-1-.72,3,3,0,0,1-.7-1,3.38,3.38,0,0,1-.24-1.27V75.52h.58v5.29a2.66,2.66,0,0,0,.21,1,2.4,2.4,0,0,0,.57.86,2.68,2.68,0,0,0,1.86.79,2.62,2.62,0,0,0,2.45-1.65,2.66,2.66,0,0,0,.21-1V75.52h.58v5.29a3.38,3.38,0,0,1-.24,1.27,3,3,0,0,1-.7,1,3.24,3.24,0,0,1-1,.72A3.12,3.12,0,0,1,128,84.11Z" transform="translate(-5.76 -5.11)"/><path class="cls-3" d="M140.17,84h-.79l-3-3.62-2.74,3.76V75.52h.58v6.81l5-6.81h.74l-3.19,4.37Z" transform="translate(-5.76 -5.11)"/><path class="cls-3" d="M142.08,84v-8.5h5.5v.6h-4.92v3.35h3.83v.6h-3.83V83.4h4.92V84Z" transform="translate(-5.76 -5.11)"/><path class="cls-3" d="M154.83,84l-3.53-4.29h1a4.13,4.13,0,0,0,1.57-.25,2.19,2.19,0,0,0,.77-.63,1.55,1.55,0,0,0,.32-.94,1.59,1.59,0,0,0-.27-.87,2.07,2.07,0,0,0-.78-.67,2.63,2.63,0,0,0-1.18-.26H150.4V84h-.59v-8.5h3a3.42,3.42,0,0,1,1.12.19,2.9,2.9,0,0,1,.92.54,2.65,2.65,0,0,1,.58.77,2.17,2.17,0,0,1,.2.89,2.07,2.07,0,0,1-.43,1.29,2.56,2.56,0,0,1-1,.82,2.71,2.71,0,0,1-.79.23,7.15,7.15,0,0,1-.82,0L155.61,84Z" transform="translate(-5.76 -5.11)"/><path class="cls-3" d="M158.88,81.86l-1,2.16h-.66l4-8.6L165,84h-.64l-1-2.16Zm2.31-5-2,4.4h4Z" transform="translate(-5.76 -5.11)"/><path class="cls-3" d="M167.44,77.12V84h-.59v-8.6l5.88,7V75.52h.59v8.64Z" transform="translate(-5.76 -5.11)"/><path class="cls-4" d="M64.31,94.28V88h4.07v.44H64.75v2.47h2.83v.46H64.75v2.9Z" transform="translate(-5.76 -5.11)"/><path class="cls-4" d="M73.7,94.28l-2.61-3.16h.77A2.93,2.93,0,0,0,73,90.93a1.5,1.5,0,0,0,.57-.47,1.07,1.07,0,0,0,.24-.69,1.2,1.2,0,0,0-.2-.64,1.59,1.59,0,0,0-.58-.5,2,2,0,0,0-.87-.19H70.42v5.84H70V88h2.19a2.26,2.26,0,0,1,.83.14,1.93,1.93,0,0,1,1.11,1,1.51,1.51,0,0,1,.15.65,1.58,1.58,0,0,1-.32,1,1.88,1.88,0,0,1-.76.6,1.9,1.9,0,0,1-.58.17,5.74,5.74,0,0,1-.6,0l2.26,2.75Z" transform="translate(-5.76 -5.11)"/><path class="cls-4" d="M78.64,94.35a3,3,0,0,1-1.59-.43,3.18,3.18,0,0,1-1.16-1.17,3.21,3.21,0,0,1,0-3.21,3.18,3.18,0,0,1,1.16-1.17,3.15,3.15,0,0,1,3.18,0,3.22,3.22,0,0,1,0,5.55A3.06,3.06,0,0,1,78.64,94.35Zm0-6a2.62,2.62,0,0,0-1.37.38,2.74,2.74,0,0,0-1,1,2.78,2.78,0,0,0,0,2.77,2.74,2.74,0,0,0,1,1,2.72,2.72,0,0,0,3.73-1,2.76,2.76,0,0,0-2.36-4.15Z" transform="translate(-5.76 -5.11)"/><path class="cls-4" d="M83.66,89.19v5.09h-.44V87.93l4.35,5.19V88H88v6.38Z" transform="translate(-5.76 -5.11)"/><path class="cls-4" d="M94.77,88v.44H92.29v5.83h-.45V88.45H89.35V88Z" transform="translate(-5.76 -5.11)"/><path class="cls-4" d="M99.37,94.28V88h4.07v.44H99.81v2.47h2.83v.45H99.81v2.46h3.63v.45Z" transform="translate(-5.76 -5.11)"/><path class="cls-4" d="M105.53,89.19v5.09h-.43V87.93l4.34,5.19V88h.44v6.38Z" transform="translate(-5.76 -5.11)"/><path class="cls-4" d="M113.53,94.28h-1.8V88h1.8a3.15,3.15,0,0,1,1.24.24,3,3,0,0,1,1,.7,3.07,3.07,0,0,1,.6,1,3.3,3.3,0,0,1,0,2.37,3.22,3.22,0,0,1-.6,1,2.91,2.91,0,0,1-1,.71A3.15,3.15,0,0,1,113.53,94.28Zm-1.37-.43h1.37a2.47,2.47,0,0,0,1.91-.82,2.65,2.65,0,0,0,.51-.86,2.94,2.94,0,0,0,.18-1,2.9,2.9,0,0,0-.18-1,2.65,2.65,0,0,0-.51-.86,2.51,2.51,0,0,0-1.91-.8h-1.37Z" transform="translate(-5.76 -5.11)"/><path class="cls-4" d="M123,94.28h-1.81V88H123a3.14,3.14,0,0,1,1.23.24,3,3,0,0,1,1,.7,3.07,3.07,0,0,1,.6,1,3.3,3.3,0,0,1,0,2.37,3.22,3.22,0,0,1-.6,1,2.91,2.91,0,0,1-1,.71A3.14,3.14,0,0,1,123,94.28Zm-1.38-.43H123a2.47,2.47,0,0,0,1.9-.82,2.65,2.65,0,0,0,.51-.86,2.94,2.94,0,0,0,.18-1,2.9,2.9,0,0,0-.18-1,2.65,2.65,0,0,0-.51-.86,2.5,2.5,0,0,0-1.9-.8h-1.38Z" transform="translate(-5.76 -5.11)"/><path class="cls-4" d="M127.49,94.28V88h4.07v.44h-3.63v2.47h2.83v.45h-2.83v2.46h3.63v.45Z" transform="translate(-5.76 -5.11)"/><path class="cls-4" d="M135.73,93.31,138.1,88h.49l-2.86,6.38L132.88,88h.47Z" transform="translate(-5.76 -5.11)"/><path class="cls-4" d="M140,94.28V88H144v.44h-3.63v2.47h2.83v.45h-2.83v2.46H144v.45Z" transform="translate(-5.76 -5.11)"/><path class="cls-4" d="M145.66,94.28V88h.44v5.84h3.52v.43Z" transform="translate(-5.76 -5.11)"/><path class="cls-4" d="M153.47,94.35a3.06,3.06,0,0,1-1.59-.43,3.22,3.22,0,0,1,0-5.55,3.15,3.15,0,0,1,3.18,0,3.22,3.22,0,0,1,0,5.55A3.06,3.06,0,0,1,153.47,94.35Zm0-6a2.64,2.64,0,0,0-1.37.38,2.74,2.74,0,0,0-1,1,2.78,2.78,0,0,0,0,2.77,2.74,2.74,0,0,0,1,1,2.66,2.66,0,0,0,2.74,0,2.76,2.76,0,0,0,0-4.77A2.62,2.62,0,0,0,153.47,88.38Z" transform="translate(-5.76 -5.11)"/><path class="cls-4" d="M158.06,94.28V88h2.24a2.18,2.18,0,0,1,1,.24,2,2,0,0,1,.75.65,1.55,1.55,0,0,1,.27.88,1.6,1.6,0,0,1-.27.89,2,2,0,0,1-.75.65,2.18,2.18,0,0,1-1,.24h-1.8v2.72Zm.43-3.17h1.8a1.8,1.8,0,0,0,.8-.18,1.47,1.47,0,0,0,.58-.49,1.07,1.07,0,0,0,.22-.66,1.12,1.12,0,0,0-.22-.67,1.53,1.53,0,0,0-.58-.48,1.8,1.8,0,0,0-.8-.18h-1.81Z" transform="translate(-5.76 -5.11)"/><path class="cls-4" d="M163.79,94.28V88h4.06v.44h-3.63v2.47h2.83v.45h-2.83v2.46h3.63v.45Z" transform="translate(-5.76 -5.11)"/><path class="cls-4" d="M173.21,94.28l-2.6-3.16h.77a3,3,0,0,0,1.16-.19,1.67,1.67,0,0,0,.57-.47,1.07,1.07,0,0,0,.24-.69,1.13,1.13,0,0,0-.21-.64,1.44,1.44,0,0,0-.58-.5,2,2,0,0,0-.86-.19h-1.76v5.84h-.43V88h2.19a2.3,2.3,0,0,1,.83.14,1.9,1.9,0,0,1,.67.4,1.79,1.79,0,0,1,.43.57,1.51,1.51,0,0,1,.15.65,1.52,1.52,0,0,1-.32,1,1.79,1.79,0,0,1-.75.6,1.9,1.9,0,0,1-.58.17,5.79,5.79,0,0,1-.61,0l2.27,2.75Z" transform="translate(-5.76 -5.11)"/></svg>