<?xml version="1.0" encoding="utf-8"?>
<!-- Generator: Adobe Illustrator 24.2.3, SVG Export Plug-In . SVG Version: 6.00 Build 0)  -->
<svg version="1.1" id="Camada_1" xmlns="http://www.w3.org/2000/svg" xmlns:xlink="http://www.w3.org/1999/xlink" x="0px" y="0px"
	 viewBox="0 0 136 77.5" style="enable-background:new 0 0 136 77.5;" xml:space="preserve">
<style type="text/css">
	.st0{fill:#FFFFFF;}
	.st1{fill:#CBD400;}
</style>
<g>
	<path class="st0" d="M26.53,47.43L45.32,5.5h3.82L26.53,55.98L4,5.5h3.74L26.53,47.43z"/>
	<path class="st0" d="M48.3,56.02L72.78,9.08H46.51V5.5h32.1L54.2,52.52h26.27v3.5H48.3z"/>
	<path class="st1" d="M123.44,30.78L81.52,9.77V5.5L132,30.78l-50.48,25.2v-4.19L123.44,30.78z"/>
	<g>
		<path class="st1" d="M39.84,55.91H37.2V53.2h2.64V55.91z"/>
	</g>
	<g>
		<path class="st0" d="M51.41,64.45L53.86,59h0.5l-2.94,6.56L48.48,59h0.49L51.41,64.45z"/>
		<path class="st0" d="M55.87,65.45V59h0.45v6.45H55.87z"/>
		<path class="st0" d="M61.2,65.52c-0.59,0-1.14-0.15-1.64-0.45c-0.5-0.3-0.9-0.7-1.19-1.21c-0.29-0.51-0.44-1.06-0.44-1.65
			c0-0.6,0.15-1.15,0.44-1.65c0.29-0.5,0.69-0.9,1.19-1.2c0.5-0.3,1.05-0.45,1.64-0.45c0.46,0,0.89,0.09,1.32,0.28
			c0.42,0.19,0.79,0.46,1.11,0.8l-0.35,0.31c-0.26-0.3-0.58-0.53-0.94-0.7c-0.36-0.17-0.74-0.25-1.14-0.25
			c-0.51,0-0.98,0.13-1.41,0.38c-0.43,0.25-0.77,0.6-1.03,1.04c-0.26,0.44-0.38,0.91-0.38,1.43c0,0.52,0.13,0.99,0.38,1.43
			c0.25,0.44,0.6,0.78,1.03,1.04c0.43,0.25,0.9,0.38,1.41,0.38c0.42,0,0.83-0.09,1.21-0.28c0.38-0.19,0.71-0.44,0.98-0.77l0.36,0.28
			c-0.31,0.39-0.69,0.69-1.13,0.91C62.17,65.41,61.7,65.52,61.2,65.52z"/>
		<path class="st0" d="M70.35,59v0.46h-2.55v6h-0.46v-6h-2.56V59H70.35z"/>
		<path class="st0" d="M74.35,65.52c-0.59,0-1.14-0.15-1.64-0.44c-0.5-0.29-0.9-0.7-1.19-1.2c-0.29-0.51-0.44-1.06-0.44-1.65
			c0-0.6,0.15-1.15,0.44-1.65c0.29-0.51,0.69-0.91,1.19-1.2c0.5-0.29,1.05-0.44,1.64-0.44c0.59,0,1.14,0.15,1.64,0.44
			c0.5,0.29,0.9,0.69,1.19,1.2c0.29,0.51,0.44,1.06,0.44,1.65c0,0.6-0.15,1.15-0.44,1.65c-0.29,0.51-0.69,0.91-1.19,1.2
			C75.48,65.37,74.94,65.52,74.35,65.52z M74.35,59.38c-0.51,0-0.98,0.13-1.41,0.38c-0.43,0.25-0.77,0.6-1.03,1.03
			c-0.26,0.43-0.38,0.91-0.38,1.42c0,0.52,0.13,0.99,0.38,1.42c0.25,0.43,0.6,0.78,1.03,1.03c0.43,0.25,0.9,0.38,1.41,0.38
			c0.51,0,0.98-0.13,1.41-0.38c0.43-0.25,0.77-0.6,1.02-1.03c0.25-0.43,0.38-0.91,0.38-1.42c0-0.52-0.13-0.99-0.38-1.42
			c-0.25-0.43-0.59-0.78-1.02-1.03C75.33,59.51,74.86,59.38,74.35,59.38z"/>
		<path class="st0" d="M82.86,65.45l-2.68-3.26h0.79c0.49,0,0.89-0.06,1.19-0.19c0.23-0.11,0.42-0.27,0.59-0.48
			c0.17-0.21,0.25-0.45,0.25-0.71c0-0.23-0.07-0.45-0.21-0.66c-0.14-0.21-0.34-0.38-0.6-0.51c-0.26-0.13-0.56-0.2-0.89-0.2H79.5
			v6.01h-0.45V59h2.25c0.3,0,0.59,0.05,0.85,0.14c0.26,0.1,0.5,0.23,0.7,0.41c0.19,0.17,0.34,0.37,0.44,0.59
			c0.1,0.22,0.15,0.44,0.15,0.68c0,0.36-0.11,0.69-0.33,0.98c-0.22,0.29-0.48,0.49-0.77,0.62c-0.21,0.09-0.41,0.15-0.6,0.17
			c-0.2,0.02-0.4,0.03-0.62,0.03l2.33,2.83H82.86z"/>
		<path class="st0" d="M88.63,65.45l3.13-6H88.4V59h4.1L89.39,65h3.36v0.45H88.63z"/>
		<path class="st0" d="M96.84,65.52c-0.32,0-0.64-0.06-0.94-0.19c-0.3-0.13-0.57-0.31-0.8-0.55c-0.23-0.23-0.41-0.49-0.53-0.79
			c-0.12-0.3-0.18-0.63-0.18-0.96V59h0.45v4.02c0,0.28,0.05,0.54,0.15,0.79c0.1,0.25,0.25,0.47,0.43,0.66
			c0.19,0.19,0.41,0.34,0.66,0.44c0.24,0.1,0.5,0.15,0.76,0.15c0.27,0,0.53-0.05,0.77-0.15c0.24-0.1,0.46-0.25,0.66-0.44
			c0.18-0.18,0.33-0.4,0.43-0.66c0.1-0.25,0.15-0.52,0.15-0.79V59h0.45v4.02c0,0.34-0.06,0.66-0.18,0.96
			c-0.12,0.3-0.3,0.57-0.53,0.79c-0.23,0.24-0.5,0.42-0.79,0.55C97.5,65.45,97.18,65.52,96.84,65.52z"/>
		<path class="st0" d="M106.11,65.45h-0.6l-2.31-2.75l-2.08,2.86V59h0.45v5.17l3.76-5.17h0.57l-2.42,3.32L106.11,65.45z"/>
		<path class="st0" d="M107.56,65.45V59h4.18v0.46h-3.73v2.54h2.91v0.46h-2.91v2.53h3.73v0.47H107.56z"/>
		<path class="st0" d="M117.25,65.45l-2.68-3.26h0.79c0.49,0,0.89-0.06,1.19-0.19c0.23-0.11,0.42-0.27,0.59-0.48
			c0.17-0.21,0.25-0.45,0.25-0.71c0-0.23-0.07-0.45-0.21-0.66c-0.14-0.21-0.34-0.38-0.6-0.51c-0.26-0.13-0.56-0.2-0.89-0.2h-1.81
			v6.01h-0.45V59h2.25c0.3,0,0.59,0.05,0.85,0.14c0.26,0.1,0.5,0.23,0.7,0.41c0.19,0.17,0.34,0.37,0.44,0.59
			c0.1,0.22,0.15,0.44,0.15,0.68c0,0.36-0.11,0.69-0.33,0.98c-0.22,0.29-0.48,0.49-0.77,0.62c-0.21,0.09-0.41,0.15-0.6,0.17
			c-0.2,0.02-0.4,0.03-0.62,0.03l2.33,2.83H117.25z"/>
		<path class="st0" d="M120.33,63.81l-0.76,1.64h-0.5l3.04-6.53l2.87,6.53h-0.49l-0.72-1.64H120.33z M122.09,60.02l-1.55,3.35h3.03
			L122.09,60.02z"/>
		<path class="st0" d="M126.83,60.21v5.24h-0.45v-6.53l4.47,5.34V59h0.45v6.56L126.83,60.21z"/>
	</g>
	<g>
		<path class="st1" d="M71.03,71.94v-3.47h2.25v0.25h-2.01v1.37h1.57v0.25h-1.57v1.61H71.03z"/>
		<path class="st1" d="M76.23,71.94l-1.44-1.75h0.43c0.26,0,0.48-0.03,0.64-0.1c0.12-0.06,0.23-0.14,0.32-0.26
			c0.09-0.12,0.13-0.24,0.13-0.38c0-0.12-0.04-0.24-0.11-0.36c-0.07-0.11-0.18-0.2-0.32-0.28c-0.14-0.07-0.3-0.11-0.48-0.11h-0.97
			v3.23h-0.24v-3.47h1.21c0.16,0,0.32,0.03,0.46,0.08c0.14,0.05,0.27,0.13,0.37,0.22c0.1,0.09,0.18,0.2,0.24,0.32
			c0.06,0.12,0.08,0.24,0.08,0.36c0,0.2-0.06,0.37-0.18,0.53c-0.12,0.16-0.26,0.27-0.42,0.33c-0.11,0.05-0.22,0.08-0.32,0.09
			c-0.11,0.01-0.22,0.02-0.33,0.02l1.26,1.52H76.23z"/>
		<path class="st1" d="M78.97,71.98c-0.32,0-0.61-0.08-0.88-0.24c-0.27-0.16-0.48-0.37-0.64-0.65c-0.16-0.27-0.24-0.57-0.24-0.89
			c0-0.32,0.08-0.62,0.24-0.89c0.16-0.27,0.37-0.49,0.64-0.65c0.27-0.16,0.56-0.24,0.88-0.24c0.32,0,0.61,0.08,0.88,0.24
			c0.27,0.16,0.48,0.37,0.64,0.65c0.16,0.27,0.24,0.57,0.24,0.89c0,0.32-0.08,0.62-0.24,0.89c-0.16,0.27-0.37,0.49-0.64,0.65
			C79.58,71.9,79.28,71.98,78.97,71.98z M78.97,68.67c-0.27,0-0.53,0.07-0.76,0.21c-0.23,0.14-0.42,0.32-0.55,0.56
			c-0.14,0.23-0.21,0.49-0.21,0.77c0,0.28,0.07,0.53,0.21,0.77c0.14,0.23,0.32,0.42,0.55,0.56c0.23,0.14,0.48,0.21,0.76,0.21
			c0.27,0,0.53-0.07,0.76-0.21c0.23-0.14,0.42-0.32,0.55-0.56c0.14-0.23,0.2-0.49,0.2-0.77c0-0.28-0.07-0.53-0.2-0.77
			c-0.14-0.23-0.32-0.42-0.55-0.56C79.49,68.74,79.24,68.67,78.97,68.67z"/>
		<path class="st1" d="M81.75,69.12v2.82h-0.24v-3.52l2.41,2.88v-2.83h0.24V72L81.75,69.12z"/>
		<path class="st1" d="M87.9,68.47v0.25h-1.37v3.23h-0.25v-3.23H84.9v-0.25H87.9z"/>
		<path class="st1" d="M90.45,71.94v-3.47h2.25v0.25h-2.01v1.37h1.57v0.25h-1.57v1.36h2.01v0.25H90.45z"/>
		<path class="st1" d="M93.86,69.12v2.82h-0.24v-3.52l2.41,2.88v-2.83h0.24V72L93.86,69.12z"/>
		<path class="st1" d="M98.29,71.94h-1v-3.47h1c0.25,0,0.47,0.05,0.68,0.14c0.21,0.09,0.39,0.22,0.55,0.39
			c0.15,0.16,0.26,0.34,0.34,0.55c0.08,0.21,0.12,0.43,0.12,0.66c0,0.23-0.04,0.45-0.12,0.66c-0.08,0.21-0.19,0.39-0.34,0.56
			c-0.15,0.17-0.34,0.3-0.55,0.39C98.76,71.9,98.54,71.94,98.29,71.94z M97.53,71.7h0.76c0.43,0,0.78-0.15,1.05-0.45
			c0.12-0.14,0.22-0.29,0.29-0.47c0.07-0.18,0.1-0.37,0.1-0.57c0-0.2-0.03-0.39-0.1-0.57c-0.07-0.18-0.16-0.34-0.29-0.47
			c-0.27-0.3-0.62-0.44-1.05-0.44h-0.76V71.7z"/>
		<path class="st1" d="M103.53,71.94h-1v-3.47h1c0.25,0,0.47,0.05,0.68,0.14c0.21,0.09,0.39,0.22,0.55,0.39
			c0.15,0.16,0.26,0.34,0.34,0.55c0.08,0.21,0.12,0.43,0.12,0.66c0,0.23-0.04,0.45-0.12,0.66c-0.08,0.21-0.19,0.39-0.34,0.56
			c-0.15,0.17-0.33,0.3-0.55,0.39C104,71.9,103.78,71.94,103.53,71.94z M102.77,71.7h0.76c0.43,0,0.78-0.15,1.05-0.45
			c0.12-0.14,0.22-0.29,0.29-0.47c0.07-0.18,0.1-0.37,0.1-0.57c0-0.2-0.03-0.39-0.1-0.57c-0.07-0.18-0.16-0.34-0.29-0.47
			c-0.27-0.3-0.63-0.44-1.05-0.44h-0.76V71.7z"/>
		<path class="st1" d="M106.02,71.94v-3.47h2.25v0.25h-2.01v1.37h1.57v0.25h-1.57v1.36h2.01v0.25H106.02z"/>
		<path class="st1" d="M110.58,71.4l1.32-2.93h0.27L110.58,72L109,68.47h0.26L110.58,71.4z"/>
		<path class="st1" d="M112.92,71.94v-3.47h2.25v0.25h-2.01v1.37h1.57v0.25h-1.57v1.36h2.01v0.25H112.92z"/>
		<path class="st1" d="M116.08,71.94v-3.47h0.24v3.23h1.95v0.24H116.08z"/>
		<path class="st1" d="M120.41,71.98c-0.32,0-0.61-0.08-0.88-0.24c-0.27-0.16-0.48-0.37-0.64-0.65c-0.16-0.27-0.23-0.57-0.23-0.89
			c0-0.32,0.08-0.62,0.23-0.89c0.16-0.27,0.37-0.49,0.64-0.65c0.27-0.16,0.56-0.24,0.88-0.24c0.32,0,0.61,0.08,0.88,0.24
			c0.27,0.16,0.48,0.37,0.64,0.65c0.16,0.27,0.23,0.57,0.23,0.89c0,0.32-0.08,0.62-0.23,0.89c-0.16,0.27-0.37,0.49-0.64,0.65
			C121.02,71.9,120.72,71.98,120.41,71.98z M120.41,68.67c-0.27,0-0.53,0.07-0.76,0.21c-0.23,0.14-0.42,0.32-0.55,0.56
			c-0.14,0.23-0.21,0.49-0.21,0.77c0,0.28,0.07,0.53,0.21,0.77c0.14,0.23,0.32,0.42,0.55,0.56c0.23,0.14,0.48,0.21,0.76,0.21
			c0.27,0,0.53-0.07,0.76-0.21c0.23-0.14,0.41-0.32,0.55-0.56c0.14-0.23,0.2-0.49,0.2-0.77c0-0.28-0.07-0.53-0.2-0.77
			c-0.14-0.23-0.32-0.42-0.55-0.56C120.93,68.74,120.68,68.67,120.41,68.67z"/>
		<path class="st1" d="M122.95,71.94l-0.01-3.47h1.24c0.2,0,0.39,0.04,0.56,0.13c0.17,0.09,0.31,0.21,0.41,0.36
			c0.1,0.15,0.15,0.31,0.15,0.49c0,0.17-0.05,0.34-0.15,0.49c-0.1,0.15-0.24,0.27-0.41,0.36c-0.17,0.09-0.36,0.13-0.56,0.13h-0.99
			v1.51H122.95z M123.19,70.18h0.99c0.16,0,0.31-0.03,0.44-0.1c0.13-0.07,0.24-0.16,0.32-0.27c0.08-0.11,0.12-0.23,0.12-0.37
			c0-0.14-0.04-0.26-0.12-0.37c-0.08-0.11-0.19-0.2-0.32-0.27c-0.14-0.07-0.28-0.1-0.44-0.1h-1L123.19,70.18z"/>
		<path class="st1" d="M126.12,71.94v-3.47h2.25v0.25h-2.01v1.37h1.57v0.25h-1.57v1.36h2.01v0.25H126.12z"/>
		<path class="st1" d="M131.34,71.94l-1.44-1.75h0.43c0.26,0,0.48-0.03,0.64-0.1c0.12-0.06,0.23-0.14,0.32-0.26
			c0.09-0.12,0.13-0.24,0.13-0.38c0-0.12-0.04-0.24-0.11-0.36c-0.07-0.11-0.18-0.2-0.32-0.28c-0.14-0.07-0.3-0.11-0.48-0.11h-0.97
			v3.23h-0.24v-3.47h1.21c0.16,0,0.32,0.03,0.46,0.08c0.14,0.05,0.27,0.13,0.37,0.22c0.1,0.09,0.18,0.2,0.24,0.32
			c0.06,0.12,0.08,0.24,0.08,0.36c0,0.2-0.06,0.37-0.18,0.53c-0.12,0.16-0.26,0.27-0.42,0.33c-0.11,0.05-0.22,0.08-0.32,0.09
			c-0.11,0.01-0.22,0.02-0.33,0.02l1.26,1.52H131.34z"/>
	</g>
</g>
</svg>
